<svg width="25" height="25" viewBox="0 0 25 25" fill="none" xmlns="http://www.w3.org/2000/svg">
<path d="M20.8333 5.20825H4.16667C3.59137 5.20825 3.125 5.67462 3.125 6.24992V18.7499C3.125 19.3252 3.59137 19.7916 4.16667 19.7916H20.8333C21.4086 19.7916 21.875 19.3252 21.875 18.7499V6.24992C21.875 5.67462 21.4086 5.20825 20.8333 5.20825Z" stroke="black" stroke-width="2" stroke-linecap="round" stroke-linejoin="round"/>
<path d="M21.4793 5.43742L13.146 11.9895C12.9621 12.1348 12.7346 12.2139 12.5002 12.2139C12.2658 12.2139 12.0382 12.1348 11.8543 11.9895L3.521 5.43742C3.70427 5.29038 3.93187 5.20961 4.16683 5.20825H20.8335C21.0685 5.20961 21.2961 5.29038 21.4793 5.43742Z" stroke="#A139F4" stroke-width="2" stroke-linecap="round" stroke-linejoin="round"/>
</svg>
