<svg width="25" height="25" viewBox="0 0 25 25" fill="none" xmlns="http://www.w3.org/2000/svg">
<g clip-path="url(#clip0_175_26)">
<path fill-rule="evenodd" clip-rule="evenodd" d="M12.5001 0.996582C5.98701 0.996582 0.705566 6.27685 0.705566 12.7911C0.705566 18.0024 4.08506 22.4233 8.77139 23.9831C9.36064 24.0925 9.57705 23.7272 9.57705 23.4157C9.57705 23.1345 9.56611 22.2054 9.56104 21.2198C6.27979 21.9333 5.5874 19.8282 5.5874 19.8282C5.05088 18.4649 4.27783 18.1024 4.27783 18.1024C3.20752 17.3704 4.3585 17.3856 4.3585 17.3856C5.54268 17.4687 6.1665 18.6011 6.1665 18.6011C7.21846 20.4038 8.92568 19.8827 9.59873 19.5815C9.70459 18.8192 10.0103 18.2987 10.3476 18.0042C7.72783 17.7063 4.97373 16.6948 4.97373 12.1755C4.97373 10.8878 5.43467 9.83564 6.18916 9.00947C6.0665 8.7126 5.66279 7.51299 6.30322 5.88838C6.30322 5.88838 7.29346 5.57139 9.54736 7.09736C10.4884 6.83584 11.4976 6.70439 12.5001 6.6999C13.5021 6.70439 14.5118 6.83545 15.4546 7.09697C17.7058 5.571 18.6948 5.88799 18.6948 5.88799C19.3368 7.5124 18.9331 8.71221 18.8106 9.00908C19.5669 9.83525 20.0245 10.8874 20.0245 12.1751C20.0245 16.7052 17.2653 17.7024 14.639 17.9946C15.0622 18.3606 15.4392 19.0786 15.4392 20.1788C15.4392 21.7569 15.4255 23.0271 15.4255 23.4155C15.4255 23.7294 15.638 24.0972 16.2356 23.9813C20.9192 22.42 24.2948 18.0005 24.2948 12.7911C24.2946 6.27725 19.0138 0.996582 12.5001 0.996582Z" fill="#181616"/>
<path d="M5.17253 17.9309C5.14655 17.9895 5.05437 18.007 4.97038 17.967C4.88444 17.9287 4.83659 17.8488 4.86433 17.79C4.88972 17.7295 4.9821 17.7129 5.06745 17.7533C5.15339 17.7918 5.20222 17.8725 5.17233 17.9311L5.17253 17.9309ZM5.65026 18.4639C5.59421 18.516 5.48425 18.4918 5.40964 18.4092C5.3323 18.3271 5.31784 18.2172 5.37507 18.1643C5.43327 18.1123 5.53991 18.1369 5.61726 18.2189C5.69421 18.3021 5.70944 18.4111 5.65046 18.4641L5.65026 18.4639ZM6.1155 19.143C6.04323 19.1934 5.92487 19.1463 5.85183 19.0414C5.77956 18.9363 5.77956 18.8103 5.85378 18.7602C5.92663 18.7098 6.04323 18.7553 6.11745 18.8592C6.18933 18.9656 6.18933 19.0918 6.1155 19.143ZM6.75241 19.7994C6.68796 19.8707 6.55007 19.8516 6.44929 19.7545C6.34636 19.6594 6.31765 19.524 6.3823 19.4529C6.44792 19.3814 6.5864 19.4014 6.68776 19.4978C6.79069 19.5928 6.82175 19.7283 6.7528 19.7992L6.75241 19.7994ZM7.63132 20.1805C7.60261 20.2728 7.47019 20.3148 7.3364 20.2754C7.203 20.235 7.11569 20.127 7.14304 20.0336C7.17038 19.9404 7.30378 19.8969 7.43835 19.9389C7.57175 19.9791 7.65905 20.0865 7.63132 20.1805ZM8.59675 20.251C8.60007 20.3482 8.48679 20.4287 8.34675 20.4307C8.20554 20.434 8.09128 20.3551 8.08991 20.2594C8.08991 20.1611 8.20085 20.0816 8.34187 20.0789C8.4819 20.0764 8.59694 20.1545 8.59694 20.2508L8.59675 20.251ZM9.4948 20.0982C9.51159 20.193 9.41413 20.2904 9.27487 20.3164C9.13815 20.3418 9.0112 20.2828 8.99362 20.1889C8.97683 20.0916 9.07605 19.9941 9.21276 19.9689C9.35222 19.9449 9.47722 20.002 9.4948 20.0982Z" fill="#181616"/>
</g>
<defs>
<clipPath id="clip0_175_26">
<rect width="25" height="25" fill="white"/>
</clipPath>
</defs>
</svg>
